<?xml version="1.0" encoding="UTF-8" standalone="no"?>
<svg
   id="Layer_1"
   data-name="Layer 1"
   width="860.6667"
   height="208.6659"
   version="1.1"
   viewBox="0 0 860.6667 208.6659"
   sodipodi:docname="site_logo_dark.svg"
   inkscape:version="1.2 (dc2aedaf03, 2022-05-15)"
   xmlns:inkscape="http://www.inkscape.org/namespaces/inkscape"
   xmlns:sodipodi="http://sodipodi.sourceforge.net/DTD/sodipodi-0.dtd"
   xmlns:xlink="http://www.w3.org/1999/xlink"
   xmlns="http://www.w3.org/2000/svg"
   xmlns:svg="http://www.w3.org/2000/svg">
  <sodipodi:namedview
     id="namedview119"
     pagecolor="#505050"
     bordercolor="#eeeeee"
     borderopacity="1"
     inkscape:showpageshadow="0"
     inkscape:pageopacity="0"
     inkscape:pagecheckerboard="0"
     inkscape:deskcolor="#505050"
     showgrid="false"
     inkscape:zoom="1.753292"
     inkscape:cx="722.9258"
     inkscape:cy="10.836757"
     inkscape:window-width="3840"
     inkscape:window-height="2054"
     inkscape:window-x="-11"
     inkscape:window-y="-11"
     inkscape:window-maximized="1"
     inkscape:current-layer="Layer_1" />
  <defs
     id="defs16">
    <linearGradient
       id="linearGradient5054"
       x1="52.207199"
       y1="32.62603"
       x2="116.49672"
       y2="32.62603"
       gradientUnits="userSpaceOnUse"
       spreadMethod="pad">
      <stop
         offset="0"
         stop-color="#8ac73f"
         id="stop5050"
         style="stop-color:#0c7b71;stop-opacity:1;" />
      <stop
         offset="1"
         stop-color="#39b54a"
         id="stop5052"
         style="stop-color:#0da75a;stop-opacity:1;" />
    </linearGradient>
    <linearGradient
       id="linearGradient5048"
       x1="52.207199"
       y1="32.62603"
       x2="116.49672"
       y2="32.62603"
       gradientUnits="userSpaceOnUse"
       spreadMethod="pad">
      <stop
         offset="0"
         stop-color="#8ac73f"
         id="stop5044"
         style="stop-color:#0c7b71;stop-opacity:1;" />
      <stop
         offset="1"
         stop-color="#39b54a"
         id="stop5046"
         style="stop-color:#0da75a;stop-opacity:1;" />
    </linearGradient>
    <linearGradient
       id="linearGradient5042"
       x1="52.207199"
       y1="32.62603"
       x2="116.49672"
       y2="32.62603"
       gradientUnits="userSpaceOnUse"
       spreadMethod="pad">
      <stop
         offset="0"
         stop-color="#8ac73f"
         id="stop5038"
         style="stop-color:#0c7b71;stop-opacity:1;" />
      <stop
         offset="1"
         stop-color="#39b54a"
         id="stop5040"
         style="stop-color:#0da75a;stop-opacity:1;" />
    </linearGradient>
    <linearGradient
       id="linearGradient5036"
       x1="52.207199"
       y1="32.62603"
       x2="116.49672"
       y2="32.62603"
       gradientUnits="userSpaceOnUse"
       spreadMethod="pad">
      <stop
         offset="0"
         stop-color="#8ac73f"
         id="stop5032"
         style="stop-color:#0c7b71;stop-opacity:1;" />
      <stop
         offset="1"
         stop-color="#39b54a"
         id="stop5034"
         style="stop-color:#0da75a;stop-opacity:1;" />
    </linearGradient>
    <linearGradient
       id="linearGradient5030"
       x1="52.207199"
       y1="32.62603"
       x2="116.49672"
       y2="32.62603"
       gradientUnits="userSpaceOnUse"
       spreadMethod="pad">
      <stop
         offset="0"
         stop-color="#8ac73f"
         id="stop5026"
         style="stop-color:#0c7b71;stop-opacity:1;" />
      <stop
         offset="1"
         stop-color="#39b54a"
         id="stop5028"
         style="stop-color:#0da75a;stop-opacity:1;" />
    </linearGradient>
    <linearGradient
       id="linearGradient5024"
       x1="52.207199"
       y1="32.62603"
       x2="116.49672"
       y2="32.62603"
       gradientUnits="userSpaceOnUse"
       spreadMethod="pad">
      <stop
         offset="0"
         stop-color="#8ac73f"
         id="stop5020"
         style="stop-color:#0c7b71;stop-opacity:1;" />
      <stop
         offset="1"
         stop-color="#39b54a"
         id="stop5022"
         style="stop-color:#0da75a;stop-opacity:1;" />
    </linearGradient>
    <linearGradient
       id="linearGradient5018"
       x1="52.2071979"
       y1="32.626029"
       x2="116.4967158"
       y2="32.626029"
       gradientUnits="userSpaceOnUse">
      <stop
         offset="0"
         stop-color="#8ac73f"
         id="stop5014" />
      <stop
         offset="1"
         stop-color="#39b54a"
         id="stop5016"
         style="stop-color:#0da75a;stop-opacity:1;" />
    </linearGradient>
    <linearGradient
       id="linearGradient5012"
       x1="52.2071979"
       y1="32.626029"
       x2="116.4967158"
       y2="32.626029"
       gradientUnits="userSpaceOnUse">
      <stop
         offset="0"
         stop-color="#8ac73f"
         id="stop5008"
         style="stop-color:#0c7b71;stop-opacity:1;" />
      <stop
         offset="1"
         stop-color="#39b54a"
         id="stop5010"
         style="stop-color:#0da75a;stop-opacity:1;" />
    </linearGradient>
    <style
       id="style2">
      .cls-1 {
        fill: url(#linear-gradient);
      }

      .cls-1, .cls-2, .cls-3, .cls-4, .cls-5, .cls-6, .cls-7, .cls-8, .cls-9, .cls-10 {
        stroke-width: 0px;
      }

      .cls-2 {
        fill: #8cc63f;
      }

      .cls-3 {
        fill: url(#linear-gradient-6);
      }

      .cls-4 {
        fill: url(#linear-gradient-5);
      }

      .cls-5 {
        fill: url(#linear-gradient-2);
      }

      .cls-6 {
        fill: url(#linear-gradient-7);
      }

      .cls-7 {
        fill: url(#linear-gradient-3);
      }

      .cls-8 {
        fill: url(#linear-gradient-8);
      }

      .cls-9 {
        fill: #fff;
      }

      .cls-10 {
        fill: url(#linear-gradient-4);
      }
    </style>
    <linearGradient
       id="linear-gradient"
       x1="125.79208"
       y1="32.291924"
       x2="54.388157"
       y2="32.62603"
       gradientUnits="userSpaceOnUse"
       xlink:href="#linearGradient5018">
      <stop
         offset="0"
         stop-color="#8ac73f"
         id="stop4"
         style="stop-color:#0c7b71;stop-opacity:1;" />
      <stop
         offset="1"
         stop-color="#39b54a"
         id="stop6"
         style="stop-color:#0da75a;stop-opacity:1;" />
    </linearGradient>
    <linearGradient
       id="linear-gradient-2"
       x1="116.02317"
       y1="150.70396"
       y2="151.10725"
       xlink:href="#linearGradient5048"
       x2="80.308174" />
    <linearGradient
       id="linear-gradient-3"
       x1="125.40461"
       y1="112.41384"
       y2="113.05339"
       xlink:href="#linearGradient5054"
       x2="83.786194" />
    <linearGradient
       id="linear-gradient-4"
       x1="126.05837"
       y1="71.502991"
       y2="71.454056"
       xlink:href="#linearGradient5024"
       x2="70.991692" />
    <linearGradient
       id="linear-gradient-5"
       x1="125.74351"
       y1="32.62603"
       x2="174.08826"
       y2="32.340851"
       gradientTransform="translate(346.0305625 65.2520579) rotate(180)"
       xlink:href="#linearGradient5012" />
    <linearGradient
       id="linear-gradient-6"
       x1="128.88046"
       y1="151.39243"
       x2="158.55438"
       y2="150.82208"
       gradientTransform="translate(315.6674455 302.2145005) rotate(180)"
       xlink:href="#linearGradient5042" />
    <linearGradient
       id="linear-gradient-7"
       x1="127.45457"
       y1="112.41383"
       x2="178.81908"
       y2="113.26937"
       gradientTransform="translate(356.4649464 225.9683876) rotate(180)"
       xlink:href="#linearGradient5036" />
    <linearGradient
       id="linear-gradient-8"
       x1="126.59904"
       y1="71.030487"
       x2="166.9355"
       y2="71.315666"
       gradientTransform="translate(331.1780161 141.4906135) rotate(180)"
       xlink:href="#linearGradient5030" />
  </defs>
  <g
     id="g98">
    <g
       id="g34">
      <path
         class="cls-9"
         d="M311.8349837,79.2223681c-3.0586008-5.0960156-11.4676875-9.9392133-21.1507781-9.9392133-12.4872211,0-18.4755351,5.2249031-18.4755351,11.8510453,0,7.7712585,9.17415,9.9375609,19.8767742,11.2115648,18.6027703,2.2935375,35.9315366,7.1350828,35.9315366,28.4147484,0,19.8767742-17.5848891,28.413096-37.4616632,28.413096-18.2194124,0-32.2351077-5.6066086-38.8612499-21.9158414l14.0156953-7.2623179c3.9492468,9.8103257,14.2701656,14.1429304,25.1016773,14.1429304,10.575389,0,20.5129499-3.6947765,20.5129499-13.3778671,0-8.4107391-8.7907921-11.8510453-20.6401851-13.1250492-18.2210648-2.1663023-35.0408906-7.0078476-35.0408906-27.011857,0-18.3483,18.0938297-25.8650882,34.5302976-25.9923234,13.8884601,0,28.2858609,3.9492468,35.0392382,17.7104718l-13.3778671,6.8806125Z"
         id="path18" />
      <path
         class="cls-9"
         d="M340.2447749,175.6765257v-91.6126123h14.5262883l1.0195336,8.6652094c4.8415453-7.0078476,13.250632-10.0664484,20.3857148-10.0664484,19.3678336,0,32.2367601,14.3974007,32.2367601,32.8729358,0,18.3483-11.5949226,32.8729358-31.7261671,32.8729358-6.6261422,0-16.4381203-2.0374148-20.8963078-8.9180273v36.1860069h-15.5458219ZM392.8672497,115.5356102c0-9.8103257-6.6244898-17.837707-17.837707-17.837707s-17.837707,8.0273812-17.837707,17.837707c0,9.8119781,7.2623179,17.837707,17.837707,17.837707s17.837707-8.0257288,17.837707-17.837707Z"
         id="path20" />
      <path
         class="cls-9"
         d="M482.948083,115.5356102c0,18.0938297-12.3599859,32.7457007-32.7457007,32.7457007-20.3873672,0-32.6184655-14.651871-32.6184655-32.7457007,0-17.9649421,12.4872211-32.7457007,32.4912304-32.7457007s32.8729358,14.7807586,32.8729358,32.7457007ZM433.1280863,115.5356102c0,9.5558554,5.7338437,18.4755351,17.0742961,18.4755351s17.0742961-8.9196797,17.0742961-18.4755351c0-9.4286203-6.6261422-18.6027703-17.0742961-18.6027703-11.2132172,0-17.0742961,9.17415-17.0742961,18.6027703Z"
         id="path22" />
      <path
         class="cls-9"
         d="M510.339993,84.0639134l1.1467687,7.2623179c4.8415453-7.7712585,11.3387999-8.9180273,17.7104718-8.9180273,6.4972546,0,12.7416914,2.5480078,16.1819976,5.988314l-7.0078476,13.5051023c-3.1858359-2.6752429-6.1172016-4.076482-11.2132172-4.076482-8.1546164,0-15.6714046,4.3326047-15.6714046,15.9275273v33.1274061h-15.5458219v-62.8161584h14.3990531Z"
         id="path24" />
      <path
         class="cls-9"
         d="M576.2114475,66.3534415v17.837707h17.327114v13.3795195h-17.4560015v27.1390921c0,5.988314,3.3130711,8.9196797,8.1546164,8.9196797,2.4224251,0,5.2249031-.7650633,7.5184406-1.911832l4.3326047,13.250632c-4.4598398,1.7845969-8.1546164,2.5496602-12.8689265,2.6768953-13.6339898.5089406-22.5536695-7.2639703-22.5536695-22.935375v-27.1390921h-11.7221578v-13.3795195h11.7221578v-16.1819976l15.5458219-1.6557093Z"
         id="path26" />
      <path
         class="cls-9"
         d="M646.0321487,100.7548516c-4.4598398-4.2037171-9.5558554-5.6049562-15.5441695-5.6049562-7.3912055,0-11.4676875,2.2935375-11.4676875,6.2427843,0,4.076482,3.6947765,6.3700195,11.7221578,6.8806125,11.8493929.7650633,26.8846218,3.4403062,26.8846218,20.1312445,0,11.085982-9.0469148,20.6418375-27.011857,20.6418375-9.9392133,0-19.8767742-1.6573617-29.0509242-11.2132172l7.6456758-11.0843296c5.988314,6.2427843,14.651871,8.663557,21.6597187,8.7907921,5.8610789.1272351,11.3404523-2.2935375,11.3404523-6.8806125,0-4.3309523-3.5675414-6.7517249-12.4872211-7.2623179-11.8493929-.8922984-25.9923234-5.2232507-25.9923234-19.4950687,0-14.5246359,15.0352289-19.6206515,26.5029164-19.6206515,9.8103257,0,17.1998788,1.9101796,24.4638492,8.2818515l-8.6652094,10.1920312Z"
         id="path28" />
      <path
         class="cls-2"
         d="M748.325904,101.5199149c.3833579,22.5520171-13.3778671,45.3601569-44.5950936,45.3601569h-35.0392382V57.6882322h35.0392382c30.5793983,0,44.2133882,21.7886062,44.5950936,43.8316827ZM685.3825104,130.6980742h18.3483c20.260132,0,28.2858609-14.7807586,27.9041554-29.3053945-.3817054-13.8884601-8.5363218-27.7769203-27.9041554-27.7769203h-18.3483v57.0823147Z"
         id="path30"
         style="fill:#0da75a;fill-opacity:1" />
      <path
         class="cls-2"
         d="M832.9914404,83.5549728c0,6.8806125-3.3130711,13.5051023-11.5949226,17.1998788,10.4481539,3.1858359,14.2701656,14.271818,14.2701656,19.8767742,0,19.8784266-14.9079937,26.2484461-33.3835288,26.2484461h-42.3015561V57.6882322h42.3015561c17.5832367,0,30.7082859,7.9001461,30.7082859,25.8667406ZM776.5453014,93.4925336h25.7378531c10.575389,0,14.0156953-4.4598398,14.0156953-9.5558554,0-4.0781344-3.3114187-10.9570945-14.0156953-10.9570945h-25.7378531v20.5129499ZM776.5453014,131.2086672h25.7378531c6.8806125,0,16.6925906-2.2935375,16.6925906-10.7042766,0-8.0273812-9.8119781-12.2310984-16.6925906-12.2310984h-25.7378531v22.935375Z"
         id="path32"
         style="fill:#0da75a;fill-opacity:1" />
    </g>
    <g
       id="g42">
      <path
         class="cls-2"
         d="M355.2254744,34.1745156h-14.7262292v-7.9596327h38.2052453v7.9596327h-14.7245768v38.4704562h-8.7544392v-38.4704562Z"
         id="path36"
         style="fill:#0da75a;fill-opacity:1" />
      <path
         class="cls-2"
         d="M392.300475,26.214883v18.1739713c2.9197988-3.7807016,6.5005594-4.9084677,10.2151648-4.9084677,9.2865135,0,13.3993484,6.3014447,13.3993484,15.9192653v17.2453199h-8.0934774v-17.1792238c0-5.9693114-3.116435-8.4900545-7.4275584-8.4900545-4.7771015,0-8.0934774,4.0459125-8.0934774,8.9543802v16.7148981h-8.091825V26.214883h8.091825Z"
         id="path38"
         style="fill:#0da75a;fill-opacity:1" />
      <path
         class="cls-2"
         d="M430.639565,59.1803535c.5304219,4.0459125,4.0467387,6.9640589,9.7508392,6.9640589,2.9842426,0,6.8971365-1.1269399,8.7544392-3.0503388l5.1736786,5.1067562c-3.4485683,3.5815868-9.0865725,5.3066972-14.0619626,5.3066972-11.2760086,0-17.9748565-6.9648851-17.9748565-17.4444347,0-9.9491277,6.7665966-17.1131276,17.3783385-17.1131276,10.9438752,0,17.776568,6.7657704,16.5157833,20.2303887h-25.5362597ZM448.416133,52.4806793c-.5320743-4.2450273-3.8484502-6.3667147-8.4900545-6.3667147-4.378872,0-7.9596327,2.1216874-9.1543211,6.3667147h17.6443756Z"
         id="path40"
         style="fill:#0da75a;fill-opacity:1" />
    </g>
    <g
       id="g96">
      <path
         class="cls-9"
         d="M381.1252631,161.0329167c-.7171436-1.1963409-2.691767-2.3315428-4.9638232-2.3315428-2.9297132,0-4.3342571,1.2260842-4.3342571,2.7809968,0,1.8226022,2.1514307,2.3315428,4.6630856,2.630628,4.3656528.5386839,8.4322203,1.6738858,8.4322203,6.6674523,0,4.6630856-4.1260541,6.6674523-8.7907921,6.6674523-4.2747705,0-7.564708-1.315314-9.1179682-5.1422829l3.288285-1.7052815c.9269989,2.3017995,3.3477716,3.3196807,5.8891698,3.3196807,2.4819116,0,4.8151068-.8675124,4.8151068-3.1395686,0-1.972971-2.0638533-2.7809968-4.8448501-3.0800821-4.2747705-.5072882-8.2207126-1.6441425-8.2207126-6.3386238,0-4.3045138,4.2450273-6.0692819,8.1017394-6.0990251,3.2585417,0,6.637709.9269989,8.222365,4.1557974l-3.1395686,1.6143992Z"
         id="path44" />
      <path
         class="cls-9"
         d="M391.7684007,158.0139736c0,2.8404834-4.3061662,2.8404834-4.3061662,0s4.3061662-2.8404834,4.3061662,0ZM387.791063,162.1102844v14.798935h3.6485092v-14.798935h-3.6485092Z"
         id="path46" />
      <path
         class="cls-9"
         d="M405.1313962,176.9092194v-7.8935365c0-1.9432277-1.0162288-3.7063434-3.0205955-3.7063434-1.972971,0-3.1379162,1.7631156-3.1379162,3.7063434v7.8935365h-3.6485092v-14.7691917h3.3791673l.2693419,1.7928589c.7766301-1.4937737,2.4802592-2.0324576,3.8864555-2.0324576,1.7631156,0,3.5278837.7171436,4.3640004,2.7512536,1.3169664-2.0935965,3.0205955-2.691767,4.9340799-2.691767,4.1855407,0,6.249394,2.5711415,6.249394,6.9962808v7.953023h-3.6485092v-7.953023c0-1.9432277-.8063734-3.5873702-2.7809968-3.5873702-1.972971,0-3.1990552,1.7036291-3.1990552,3.6468568v7.8935365h-3.6468568Z"
         id="path48" />
      <path
         class="cls-9"
         d="M422.0817619,183.6659016v-21.4961306h3.4089106l.2395987,2.0324576c1.1352019-1.6441425,3.1081729-2.3612861,4.7837111-2.3612861,4.5441125,0,7.5630556,3.3775149,7.5630556,7.7134244,0,4.3045138-2.7198579,7.7134244-7.4440824,7.7134244-1.5549127,0-3.8567122-.4775449-4.9026843-2.0919441v8.4900545h-3.6485092ZM434.430181,169.5543669c0-2.3017995-1.5549127-4.1855407-4.1855407-4.1855407s-4.1855407,1.8837412-4.1855407,4.1855407,1.7036291,4.1855407,4.1855407,4.1855407,4.1855407-1.8837412,4.1855407-4.1855407Z"
         id="path50" />
      <path
         class="cls-9"
         d="M444.772581,156.0096069v20.8996126h-3.6187659v-20.8996126h3.6187659Z"
         id="path52" />
      <path
         class="cls-9"
         d="M451.6482363,170.8399376c.2395987,1.8242546,1.8242546,3.1395686,4.3953961,3.1395686,1.3450573,0,3.1098253-.5089406,3.945942-1.376453l2.3331952,2.3034519c-1.5549127,1.6143992-4.0963108,2.3910294-6.3386238,2.3910294-5.0827964,0-8.1033918-3.1395686-8.1033918-7.8621408,0-4.4862783,3.0503388-7.7150768,7.8340499-7.7150768,4.9340799,0,8.0125096,3.0503388,7.4440824,9.1196206h-11.51065ZM459.6607459,167.8209945c-.2379463-1.9134845-1.7333724-2.8718791-3.8269689-2.8718791-1.972971,0-3.5873702.9583946-4.1260541,2.8718791h7.953023Z"
         id="path54" />
      <path
         class="cls-9"
         d="M486.2082772,161.0329167c-.7171436-1.1963409-2.691767-2.3315428-4.9638232-2.3315428-2.9297132,0-4.3342571,1.2260842-4.3342571,2.7809968,0,1.8226022,2.1514307,2.3315428,4.6630856,2.630628,4.3656528.5386839,8.4322203,1.6738858,8.4322203,6.6674523,0,4.6630856-4.1260541,6.6674523-8.7907921,6.6674523-4.2747705,0-7.564708-1.315314-9.1179682-5.1422829l3.288285-1.7052815c.9269989,2.3017995,3.3477716,3.3196807,5.8891698,3.3196807,2.4819116,0,4.8151068-.8675124,4.8151068-3.1395686,0-1.972971-2.0638533-2.7809968-4.8448501-3.0800821-4.2747705-.5072882-8.2207126-1.6441425-8.2207126-6.3386238,0-4.3045138,4.2450273-6.0692819,8.1017394-6.0990251,3.2585417,0,6.637709.9269989,8.222365,4.1557974l-3.1395686,1.6143992Z"
         id="path56" />
      <path
         class="cls-9"
         d="M492.8145905,183.6659016v-21.4961306h3.4089106l.2395987,2.0324576c1.1352019-1.6441425,3.1081729-2.3612861,4.7837111-2.3612861,4.5441125,0,7.5630556,3.3775149,7.5630556,7.7134244,0,4.3045138-2.7198579,7.7134244-7.4440824,7.7134244-1.5549127,0-3.8567122-.4775449-4.9026843-2.0919441v8.4900545h-3.6485092ZM505.1630096,169.5543669c0-2.3017995-1.5549127-4.1855407-4.1855407-4.1855407s-4.1855407,1.8837412-4.1855407,4.1855407,1.7036291,4.1855407,4.1855407,4.1855407,4.1855407-1.8837412,4.1855407-4.1855407Z"
         id="path58" />
      <path
         class="cls-9"
         d="M526.2394295,169.5543669c0,4.2450273-2.89997,7.6836811-7.6836811,7.6836811s-7.6539378-3.4386538-7.6539378-7.6836811c0-4.215284,2.9313656-7.6836811,7.6241945-7.6836811,4.6944813,0,7.7134244,3.4683971,7.7134244,7.6836811ZM514.5503198,169.5543669c0,2.242313,1.3450573,4.3359095,4.0054286,4.3359095,2.6620237,0,4.007081-2.0935965,4.007081-4.3359095,0-2.2125697-1.5549127-4.3656528-4.007081-4.3656528-2.630628,0-4.0054286,2.1530831-4.0054286,4.3656528Z"
         id="path60" />
      <path
         class="cls-9"
         d="M532.6077966,162.169771l.2693419,1.7036291c1.1352019-1.8242546,2.6603713-2.0919441,4.1557974-2.0919441,1.523517,0,2.9891998.596518,3.7972256,1.4045439l-1.6457949,3.1693119c-.7468869-.6279137-1.4342871-.9567422-2.630628-.9567422-1.9134845,0-3.6766001,1.0162288-3.6766001,3.7377391v7.7729109h-3.6485092v-14.7394485h3.3791673Z"
         id="path62" />
      <path
         class="cls-9"
         d="M548.0032496,158.0139736v4.1855407h4.0665676v3.1395686h-4.0963108v6.3683671c0,1.4045439.7766301,2.0919441,1.9134845,2.0919441.5667748,0,1.2260842-.1784597,1.7631156-.4478016l1.0162288,3.1098253c-1.0459721.4180583-1.9134845.596518-3.0189431.6279137-3.1990552.1189731-5.2926517-1.7052815-5.2926517-5.3818816v-6.3683671h-2.7496011v-3.1395686h2.7496011v-3.7972256l3.6485092-.3883151Z"
         id="path64" />
      <path
         class="cls-9"
         d="M564.3257016,166.0859697c-1.0459721-.9864855-2.242313-1.315314-3.6468568-1.315314-1.7350248,0-2.691767.5386839-2.691767,1.4656828,0,.9567422.8675124,1.4937737,2.7512536,1.6143992,2.7809968.1784597,6.3088805.8063734,6.3088805,4.7225722,0,2.6025371-2.1233398,4.8448501-6.3386238,4.8448501-2.3315428,0-4.664738-.3899675-6.8161687-2.6322804l1.7928589-2.6008847c1.4061963,1.4656828,3.4386538,2.03411,5.0827964,2.0638533,1.3748006.0297433,2.6603713-.5386839,2.6603713-1.6143992,0-1.0178812-.8361167-1.584656-2.9297132-1.7052815-2.7793444-.208203-6.0990251-1.2260842-6.0990251-4.5738558,0-3.4089106,3.5278837-4.6052514,6.2196507-4.6052514,2.3017995,0,4.0351719.449454,5.7404534,1.9448801l-2.03411,2.3910294Z"
         id="path66" />
      <path
         class="cls-9"
         d="M591.2037138,172.9632774h-10.9438752l-1.7928589,3.945942h-4.2764229l9.3889626-20.9293559h4.3045138l9.3889626,20.9293559h-4.3061662l-1.7631156-3.945942ZM585.73095,160.3752597l-3.8864555,8.9097653h7.7745633l-3.8881079-8.9097653Z"
         id="path68" />
      <path
         class="cls-9"
         d="M602.6532249,162.169771l.2693419,1.7036291c1.1352019-1.8242546,2.6603713-2.0919441,4.1557974-2.0919441,1.523517,0,2.9891998.596518,3.7972256,1.4045439l-1.6457949,3.1693119c-.7468869-.6279137-1.4342871-.9567422-2.630628-.9567422-1.9134845,0-3.6766001,1.0162288-3.6766001,3.7377391v7.7729109h-3.6485092v-14.7394485h3.3791673Z"
         id="path70" />
      <path
         class="cls-9"
         d="M618.0486779,158.0139736v4.1855407h4.0665676v3.1395686h-4.0963108v6.3683671c0,1.4045439.7766301,2.0919441,1.9134845,2.0919441.5667748,0,1.2260842-.1784597,1.7631156-.4478016l1.0162288,3.1098253c-1.0459721.4180583-1.9134845.596518-3.0189431.6279137-3.1990552.1189731-5.2926517-1.7052815-5.2926517-5.3818816v-6.3683671h-2.7496011v-3.1395686h2.7496011v-3.7972256l3.6485092-.3883151Z"
         id="path72" />
      <path
         class="cls-9"
         d="M643.9104613,162.169771h3.4981404v14.7394485h-3.4386538l-.1801121-2.1530831c-.8361167,1.7350248-3.1395686,2.5711415-4.7837111,2.6008847-4.3640004.0313957-7.5944512-2.6603713-7.5944512-7.8323975,0-5.0827964,3.3791673-7.7431677,7.6853335-7.7134244,1.972971,0,3.8567122.9269989,4.6928289,2.3910294l.1206255-2.0324576ZM635.0601826,169.5246236c0,2.8107401,1.9432277,4.4846259,4.3656528,4.4846259,5.7404534,0,5.7404534-8.9395085,0-8.9395085-2.4224251,0-4.3656528,1.6441425-4.3656528,4.4548826Z"
         id="path74" />
      <path
         class="cls-9"
         d="M662.2356276,176.9092194v-7.7134244c0-2.242313-1.2260842-3.9475944-3.5592794-3.9475944-2.242313,0-3.7658299,1.8837412-3.7658299,4.1260541v7.5349647h-3.6187659v-14.7691917h3.2585417l.2395987,2.0027143c1.4954261-1.4656828,2.9908522-2.2125697,4.8431977-2.2125697,3.4683971,0,6.249394,2.6008847,6.249394,7.2358795v7.7431677h-3.6468568Z"
         id="path76" />
      <path
         class="cls-9"
         d="M684.6885005,156.0096069v20.8996126h-3.4089106l-.2395987-2.0324576c-1.1352019,1.7631156-2.9594565,2.3612861-4.7539679,2.3612861-4.3342571,0-7.5944512-2.8702267-7.5944512-7.7134244,0-5.0827964,3.2007076-7.7134244,7.5052214-7.7134244,1.5549127,0,3.9756853.8361167,4.8431977,2.3612861v-8.1628784h3.6485092ZM672.3400814,169.5246236c0,2.5711415,1.8539979,4.3342571,4.1855407,4.3342571,2.3017995,0,4.2747705-1.6738858,4.2747705-4.3342571,0-2.5711415-1.972971-4.3061662-4.2747705-4.3061662-2.3315428,0-4.1855407,1.6441425-4.1855407,4.3061662Z"
         id="path78" />
      <path
         class="cls-9"
         d="M713.0288907,161.7500602l-6.8161687,9.0898774h-.7782825l-6.6674523-9.1196206v15.2186458h-3.945942v-20.9293559h4.5441125l6.5484792,9.0006475,6.5468268-9.0006475h4.5143692v20.9293559h-3.945942v-15.1889025Z"
         id="path80" />
      <path
         class="cls-9"
         d="M723.6703759,170.8399376c.2395987,1.8242546,1.8242546,3.1395686,4.3953961,3.1395686,1.3450573,0,3.1098253-.5089406,3.945942-1.376453l2.3331952,2.3034519c-1.5549127,1.6143992-4.0963108,2.3910294-6.3386238,2.3910294-5.0827964,0-8.1033918-3.1395686-8.1033918-7.8621408,0-4.4862783,3.0503388-7.7150768,7.8340499-7.7150768,4.9340799,0,8.0125096,3.0503388,7.4440824,9.1196206h-11.51065ZM731.6828855,167.8209945c-.2379463-1.9134845-1.7333724-2.8718791-3.8269689-2.8718791-1.972971,0-3.5873702.9583946-4.1260541,2.8718791h7.953023Z"
         id="path82" />
      <path
         class="cls-9"
         d="M743.1340489,158.0139736v4.1855407h4.0665676v3.1395686h-4.0963108v6.3683671c0,1.4045439.7766301,2.0919441,1.9134845,2.0919441.5667748,0,1.2260842-.1784597,1.7631156-.4478016l1.0162288,3.1098253c-1.0459721.4180583-1.9134845.596518-3.0189431.6279137-3.1990552.1189731-5.2926517-1.7052815-5.2926517-5.3818816v-6.3683671h-2.7496011v-3.1395686h2.7496011v-3.7972256l3.6485092-.3883151Z"
         id="path84" />
      <path
         class="cls-9"
         d="M761.5798407,162.169771h3.4981404v14.7394485h-3.4386538l-.1801121-2.1530831c-.8361167,1.7350248-3.1395686,2.5711415-4.7837111,2.6008847-4.3640004.0313957-7.5944512-2.6603713-7.5944512-7.8323975,0-5.0827964,3.3791673-7.7431677,7.6853335-7.7134244,1.972971,0,3.8567122.9269989,4.6928289,2.3910294l.1206255-2.0324576ZM752.7295621,169.5246236c0,2.8107401,1.9432277,4.4846259,4.3656528,4.4846259,5.7404534,0,5.7404534-8.9395085,0-8.9395085-2.4224251,0-4.3656528,1.6441425-4.3656528,4.4548826Z"
         id="path86" />
      <path
         class="cls-9"
         d="M783.8526015,156.0096069v20.8996126h-3.4089106l-.2395987-2.0324576c-1.1352019,1.7631156-2.9594565,2.3612861-4.7539679,2.3612861-4.3342571,0-7.5944512-2.8702267-7.5944512-7.7134244,0-5.0827964,3.2007076-7.7134244,7.5052214-7.7134244,1.5549127,0,3.9756853.8361167,4.8431977,2.3612861v-8.1628784h3.6485092ZM771.5041824,169.5246236c0,2.5711415,1.8539979,4.3342571,4.1855407,4.3342571,2.3017995,0,4.2747705-1.6738858,4.2747705-4.3342571,0-2.5711415-1.972971-4.3061662-4.2747705-4.3061662-2.3315428,0-4.1855407,1.6441425-4.1855407,4.3061662Z"
         id="path88" />
      <path
         class="cls-9"
         d="M799.1290814,162.169771h3.4981404v14.7394485h-3.4386538l-.1801121-2.1530831c-.8361167,1.7350248-3.1395686,2.5711415-4.7837111,2.6008847-4.3640004.0313957-7.5944512-2.6603713-7.5944512-7.8323975,0-5.0827964,3.3791673-7.7431677,7.6853335-7.7134244,1.972971,0,3.8567122.9269989,4.6928289,2.3910294l.1206255-2.0324576ZM790.2788027,169.5246236c0,2.8107401,1.9432277,4.4846259,4.3656528,4.4846259,5.7404534,0,5.7404534-8.9395085,0-8.9395085-2.4224251,0-4.3656528,1.6441425-4.3656528,4.4548826Z"
         id="path90" />
      <path
         class="cls-9"
         d="M811.565078,158.0139736v4.1855407h4.0665676v3.1395686h-4.0963108v6.3683671c0,1.4045439.7766301,2.0919441,1.9134845,2.0919441.5667748,0,1.2260842-.1784597,1.7631156-.4478016l1.0162288,3.1098253c-1.0459721.4180583-1.9134845.596518-3.0189431.6279137-3.1990552.1189731-5.2926517-1.7052815-5.2926517-5.3818816v-6.3683671h-2.7496011v-3.1395686h2.7496011v-3.7972256l3.6485092-.3883151Z"
         id="path92" />
      <path
         class="cls-9"
         d="M830.0108698,162.169771h3.4981404v14.7394485h-3.4386538l-.1801121-2.1530831c-.8361167,1.7350248-3.1395686,2.5711415-4.7837111,2.6008847-4.3640004.0313957-7.5944512-2.6603713-7.5944512-7.8323975,0-5.0827964,3.3791673-7.7431677,7.6853335-7.7134244,1.972971,0,3.8567122.9269989,4.6928289,2.3910294l.1206255-2.0324576ZM821.1605911,169.5246236c0,2.8107401,1.9432277,4.4846259,4.3656528,4.4846259,5.7404534,0,5.7404534-8.9395085,0-8.9395085-2.4224251,0-4.3656528,1.6441425-4.3656528,4.4548826Z"
         id="path94" />
    </g>
  </g>
  <g
     id="g116">
    <rect
       class="cls-1"
       x="52.2071979"
       y="24.9999984"
       width="64.2895179"
       height="15.2520611"
       id="rect100"
       style="fill:url(#linear-gradient)" />
    <rect
       class="cls-5"
       x="43.8320428"
       y="143.4812197"
       width="72.6646731"
       height="15.2520611"
       id="rect102"
       style="fill:url(#linear-gradient-2)" />
    <rect
       class="cls-7"
       x="63.9487828"
       y="104.4995523"
       width="52.5479331"
       height="16.9692831"
       id="rect104"
       style="fill:url(#linear-gradient-3)" />
    <rect
       class="cls-10"
       x="25.0000167"
       y="62.2606652"
       width="91.4966992"
       height="16.9692831"
       id="rect106"
       style="fill:url(#linear-gradient-4)" />
    <rect
       class="cls-4"
       x="135.1543748"
       y="24.9999984"
       width="75.721813"
       height="15.2520611"
       transform="translate(346.0305625 65.2520579) rotate(-180)"
       id="rect108"
       style="fill:url(#linear-gradient-5)" />
    <rect
       class="cls-3"
       x="135.1543747"
       y="143.4812197"
       width="45.358696"
       height="15.2520611"
       transform="translate(315.6674455 302.2145005) rotate(-180)"
       id="rect110"
       style="fill:url(#linear-gradient-6)" />
    <rect
       class="cls-6"
       x="135.1543748"
       y="104.4995523"
       width="86.1561968"
       height="16.9692831"
       transform="translate(356.4649464 225.9683876) rotate(-180)"
       id="rect112"
       style="fill:url(#linear-gradient-7)" />
    <rect
       class="cls-8"
       x="135.1543747"
       y="62.2606652"
       width="60.8692666"
       height="16.9692831"
       transform="translate(331.1780161 141.4906135) rotate(-180)"
       id="rect114"
       style="fill:url(#linear-gradient-8)" />
  </g>
</svg>
