<?xml version="1.0" encoding="UTF-8" standalone="no"?>
<svg
        xmlns="http://www.w3.org/2000/svg"
        xmlns:xlink="http://www.w3.org/1999/xlink"
        viewBox="0 0 499.73135 548.05002"
        version="1.1"
        id="svg4"
        width="19.989254"
        height="21.922001">

    <defs
            id="defs8">
        <linearGradient
                id="linearGradient839">
            <stop
                    style="stop-color:#17ca25;stop-opacity:1"
                    offset="0"
                    id="stop835"/>
            <stop
                    style="stop-color:#24d401;stop-opacity:1"
                    offset="1"
                    id="stop837"/>
        </linearGradient>
        <linearGradient
                xlink:href="#linearGradient839"
                id="linearGradient843"
                gradientUnits="userSpaceOnUse"
                x1="248.35483"
                y1="498.64578"
                x2="249.52516"
                y2="51.542229"/>
    </defs>
    <path d="M400 240H128v-94.8c0-52.8 42.1-96.7 95-97.2 53.4-.6 97 42.7 97 96v24c0 13.3 10.7 24 24 24s24-10.7 24-24v-22.6C368 65.8 304 .2 224.3 0 144.8-.2 80 64.5 80 144v96H48c-26.5 0-48 21.5-48 48v176c0 26.5 21.5 48 48 48h352c26.5 0 48-21.5 48-48V288c0-26.5-21.5-48-48-48zm0 224H48V288h352v176zm-176-32c-15.5 0-28-12.5-28-28v-56c0-15.5 12.5-28 28-28s28 12.5 28 28v56c0 15.5-12.5 28-28 28z"
            id="path2"
            style="fill-opacity:1;fill:url(#linearGradient843)"/>
</svg>
